<mxfile host="65bd71144e">
    <diagram id="BKm9MzX0DagpvL-ARP57" name="Page-1">
        <mxGraphModel dx="2064" dy="947" grid="1" gridSize="10" guides="1" tooltips="1" connect="1" arrows="1" fold="1" page="1" pageScale="1" pageWidth="850" pageHeight="1100" math="0" shadow="0">
            <root>
                <mxCell id="0"/>
                <mxCell id="1" parent="0"/>
                <mxCell id="53" value="Doctum components" style="rounded=1;whiteSpace=wrap;html=1;fillStyle=dashed;fillColor=#FF0000;labelPosition=center;verticalLabelPosition=bottom;align=center;verticalAlign=top;" vertex="1" parent="1">
                    <mxGeometry x="33" y="640" width="785" height="240" as="geometry"/>
                </mxCell>
                <mxCell id="52" value="Agoge componenents" style="rounded=1;whiteSpace=wrap;html=1;fillStyle=dashed;fillColor=#0000FF;labelPosition=center;verticalLabelPosition=top;align=center;verticalAlign=bottom;" vertex="1" parent="1">
                    <mxGeometry x="33" y="190" width="785" height="250" as="geometry"/>
                </mxCell>
                <mxCell id="6" style="edgeStyle=none;html=1;exitX=1;exitY=0.5;exitDx=0;exitDy=0;entryX=0;entryY=0.5;entryDx=0;entryDy=0;" parent="1" source="2" target="5" edge="1">
                    <mxGeometry relative="1" as="geometry"/>
                </mxCell>
                <mxCell id="14" value="Write course to&amp;nbsp;&lt;br&gt;doctum_content" style="edgeLabel;html=1;align=center;verticalAlign=middle;resizable=0;points=[];" parent="6" vertex="1" connectable="0">
                    <mxGeometry x="-0.25" relative="1" as="geometry">
                        <mxPoint x="20" as="offset"/>
                    </mxGeometry>
                </mxCell>
                <UserObject label="doctum helper&lt;br&gt;(terminal app)" link="https://github.com/Draed/doctum_helper?tab=readme-ov-file#doctum_helper-usage" id="2">
                    <mxCell style="rounded=0;whiteSpace=wrap;html=1;" parent="1" vertex="1">
                        <mxGeometry x="70" y="670" width="120" height="60" as="geometry"/>
                    </mxCell>
                </UserObject>
                <UserObject label="doctum_content&lt;br&gt;(git repository)" link="https://github.com/Draed/doctum_content" id="5">
                    <mxCell style="rounded=1;whiteSpace=wrap;html=1;" parent="1" vertex="1">
                        <mxGeometry x="350" y="670" width="120" height="60" as="geometry"/>
                    </mxCell>
                </UserObject>
                <mxCell id="8" style="edgeStyle=none;html=1;exitX=0;exitY=0.25;exitDx=0;exitDy=0;entryX=1;entryY=0.25;entryDx=0;entryDy=0;" parent="1" source="7" target="5" edge="1">
                    <mxGeometry relative="1" as="geometry"/>
                </mxCell>
                <mxCell id="9" value="Poll repo update" style="edgeLabel;html=1;align=center;verticalAlign=middle;resizable=0;points=[];" parent="8" vertex="1" connectable="0">
                    <mxGeometry x="-0.4889" y="-1" relative="1" as="geometry">
                        <mxPoint x="-24" as="offset"/>
                    </mxGeometry>
                </mxCell>
                <mxCell id="13" style="edgeStyle=none;html=1;exitX=0.5;exitY=1;exitDx=0;exitDy=0;entryX=0.5;entryY=0;entryDx=0;entryDy=0;entryPerimeter=0;" parent="1" source="7" target="12" edge="1">
                    <mxGeometry relative="1" as="geometry"/>
                </mxCell>
                <mxCell id="26" style="edgeStyle=none;html=1;exitX=0.25;exitY=0;exitDx=0;exitDy=0;entryX=0.25;entryY=1;entryDx=0;entryDy=0;" parent="1" source="7" target="23" edge="1">
                    <mxGeometry relative="1" as="geometry"/>
                </mxCell>
                <mxCell id="29" value="Add new course&amp;nbsp;&lt;br&gt;as tasks" style="edgeLabel;html=1;align=center;verticalAlign=middle;resizable=0;points=[];" parent="26" vertex="1" connectable="0">
                    <mxGeometry x="0.32" y="1" relative="1" as="geometry">
                        <mxPoint x="-21" y="16" as="offset"/>
                    </mxGeometry>
                </mxCell>
                <mxCell id="7" value="doctum&lt;br&gt;(rest api)" style="whiteSpace=wrap;html=1;" parent="1" vertex="1">
                    <mxGeometry x="630" y="670" width="120" height="60" as="geometry"/>
                </mxCell>
                <mxCell id="12" value="doctum&lt;br&gt;database" style="shape=cylinder3;whiteSpace=wrap;html=1;boundedLbl=1;backgroundOutline=1;size=15;" parent="1" vertex="1">
                    <mxGeometry x="660" y="780" width="60" height="80" as="geometry"/>
                </mxCell>
                <mxCell id="16" value="" style="shape=image;imageAspect=0;aspect=fixed;verticalLabelPosition=bottom;verticalAlign=top;image=https://external-content.duckduckgo.com/iu/?u=https%3A%2F%2Fcdn2.iconfinder.com%2Fdata%2Ficons%2Fzoldo-minimal-user-interface-2%2F32%2Fterminal_cli_command-1024.png&amp;f=1&amp;nofb=1&amp;ipt=5913fc856d7a3a04aa0c4f97e1a97c2ba325b204fc5cf96c45d9a7339cd31c70&amp;ipo=images;" parent="1" vertex="1">
                    <mxGeometry x="50" y="710" width="40" height="40" as="geometry"/>
                </mxCell>
                <mxCell id="18" value="" style="shape=image;imageAspect=0;aspect=fixed;verticalLabelPosition=bottom;verticalAlign=top;image=https://external-content.duckduckgo.com/iu/?u=https%3A%2F%2Fpngimg.com%2Fuploads%2Fgithub%2Fgithub_PNG28.png&amp;f=1&amp;nofb=1&amp;ipt=02a58eb6af539f856f6dea94f2eb7cacbad773b952f706acc7da04669a67950b&amp;ipo=images;" parent="1" vertex="1">
                    <mxGeometry x="330" y="710" width="40" height="40" as="geometry"/>
                </mxCell>
                <mxCell id="19" value="" style="shape=image;imageAspect=0;aspect=fixed;verticalLabelPosition=bottom;verticalAlign=top;image=https://external-content.duckduckgo.com/iu/?u=https%3A%2F%2Fkrify.com%2Fwp-content%2Fuploads%2F2021%2F02%2Frest-api.png&amp;f=1&amp;nofb=1&amp;ipt=0eecdf9b0dd68a3afb8506616eba8026bd257063826cdf942defd4905ca9b235&amp;ipo=images;" parent="1" vertex="1">
                    <mxGeometry x="610" y="705" width="56.35" height="45" as="geometry"/>
                </mxCell>
                <mxCell id="10" style="edgeStyle=none;html=1;exitX=1;exitY=0.75;exitDx=0;exitDy=0;entryX=0;entryY=0.75;entryDx=0;entryDy=0;" parent="1" source="5" target="7" edge="1">
                    <mxGeometry relative="1" as="geometry"/>
                </mxCell>
                <mxCell id="11" value="Update doctum database" style="edgeLabel;html=1;align=center;verticalAlign=middle;resizable=0;points=[];" parent="10" vertex="1" connectable="0">
                    <mxGeometry x="0.25" y="-1" relative="1" as="geometry">
                        <mxPoint x="-20" as="offset"/>
                    </mxGeometry>
                </mxCell>
                <mxCell id="27" style="edgeStyle=none;html=1;exitX=0.75;exitY=1;exitDx=0;exitDy=0;entryX=0.75;entryY=0;entryDx=0;entryDy=0;" parent="1" source="23" target="7" edge="1">
                    <mxGeometry relative="1" as="geometry"/>
                </mxCell>
                <mxCell id="28" value="Sync course &lt;br&gt;progression" style="edgeLabel;html=1;align=center;verticalAlign=middle;resizable=0;points=[];" parent="27" vertex="1" connectable="0">
                    <mxGeometry x="0.22" y="4" relative="1" as="geometry">
                        <mxPoint x="26" y="-11" as="offset"/>
                    </mxGeometry>
                </mxCell>
                <mxCell id="30" style="edgeStyle=none;html=1;exitX=0;exitY=0.25;exitDx=0;exitDy=0;entryX=1;entryY=0.25;entryDx=0;entryDy=0;" parent="1" source="23" target="24" edge="1">
                    <mxGeometry relative="1" as="geometry"/>
                </mxCell>
                <mxCell id="32" value="Get courses as tasks" style="edgeLabel;html=1;align=center;verticalAlign=middle;resizable=0;points=[];" parent="30" vertex="1" connectable="0">
                    <mxGeometry x="-0.2273" y="1" relative="1" as="geometry">
                        <mxPoint x="-30" y="-16" as="offset"/>
                    </mxGeometry>
                </mxCell>
                <mxCell id="23" value="openproject&lt;br&gt;(project mgmt app)" style="rounded=0;whiteSpace=wrap;html=1;" parent="1" vertex="1">
                    <mxGeometry x="630" y="510" width="120" height="60" as="geometry"/>
                </mxCell>
                <mxCell id="31" style="edgeStyle=none;html=1;exitX=1;exitY=0.75;exitDx=0;exitDy=0;entryX=0;entryY=0.75;entryDx=0;entryDy=0;" parent="1" source="24" target="23" edge="1">
                    <mxGeometry relative="1" as="geometry"/>
                </mxCell>
                <mxCell id="33" value="Updates tasks status and time" style="edgeLabel;html=1;align=center;verticalAlign=middle;resizable=0;points=[];" parent="31" vertex="1" connectable="0">
                    <mxGeometry x="0.2182" y="-2" relative="1" as="geometry">
                        <mxPoint x="-28" y="13" as="offset"/>
                    </mxGeometry>
                </mxCell>
                <mxCell id="24" value="Superproductivity&lt;br&gt;(time tracker app)" style="rounded=0;whiteSpace=wrap;html=1;" parent="1" vertex="1">
                    <mxGeometry x="70" y="510" width="120" height="60" as="geometry"/>
                </mxCell>
                <mxCell id="34" style="edgeStyle=none;html=1;exitX=1;exitY=0.5;exitDx=0;exitDy=0;entryX=0;entryY=0.5;entryDx=0;entryDy=0;" edge="1" parent="1" source="36" target="37">
                    <mxGeometry relative="1" as="geometry"/>
                </mxCell>
                <mxCell id="35" value="Write lab to&amp;nbsp;&lt;br&gt;agoge_content" style="edgeLabel;html=1;align=center;verticalAlign=middle;resizable=0;points=[];" vertex="1" connectable="0" parent="34">
                    <mxGeometry x="-0.25" relative="1" as="geometry">
                        <mxPoint x="20" as="offset"/>
                    </mxGeometry>
                </mxCell>
                <UserObject label="agoge helper&lt;br&gt;(terminal app)" link="https://github.com/Draed/doctum_helper?tab=readme-ov-file#doctum_helper-usage" id="36">
                    <mxCell style="rounded=0;whiteSpace=wrap;html=1;" vertex="1" parent="1">
                        <mxGeometry x="70" y="340" width="120" height="60" as="geometry"/>
                    </mxCell>
                </UserObject>
                <UserObject label="agoge_content&lt;br&gt;(git repository)" link="https://github.com/Draed/doctum_content" id="37">
                    <mxCell style="rounded=1;whiteSpace=wrap;html=1;" vertex="1" parent="1">
                        <mxGeometry x="350" y="340" width="120" height="60" as="geometry"/>
                    </mxCell>
                </UserObject>
                <mxCell id="38" style="edgeStyle=none;html=1;exitX=0;exitY=0.25;exitDx=0;exitDy=0;entryX=1;entryY=0.25;entryDx=0;entryDy=0;" edge="1" parent="1" source="40" target="37">
                    <mxGeometry relative="1" as="geometry"/>
                </mxCell>
                <mxCell id="39" value="Poll repo update" style="edgeLabel;html=1;align=center;verticalAlign=middle;resizable=0;points=[];" vertex="1" connectable="0" parent="38">
                    <mxGeometry x="-0.4889" y="-1" relative="1" as="geometry">
                        <mxPoint x="-24" as="offset"/>
                    </mxGeometry>
                </mxCell>
                <mxCell id="47" style="edgeStyle=none;html=1;exitX=0.5;exitY=0;exitDx=0;exitDy=0;entryX=0.5;entryY=1;entryDx=0;entryDy=0;entryPerimeter=0;" edge="1" parent="1" source="40" target="46">
                    <mxGeometry relative="1" as="geometry"/>
                </mxCell>
                <mxCell id="48" style="edgeStyle=none;html=1;exitX=0.75;exitY=1;exitDx=0;exitDy=0;entryX=0.75;entryY=0;entryDx=0;entryDy=0;" edge="1" parent="1" source="40" target="23">
                    <mxGeometry relative="1" as="geometry"/>
                </mxCell>
                <mxCell id="50" value="Add new lab&amp;nbsp;&lt;br&gt;as tasks" style="edgeLabel;html=1;align=center;verticalAlign=middle;resizable=0;points=[];" vertex="1" connectable="0" parent="48">
                    <mxGeometry x="-0.3197" y="1" relative="1" as="geometry">
                        <mxPoint x="29" y="23" as="offset"/>
                    </mxGeometry>
                </mxCell>
                <mxCell id="40" value="agoge&lt;br&gt;(rest api)" style="whiteSpace=wrap;html=1;" vertex="1" parent="1">
                    <mxGeometry x="630" y="340" width="120" height="60" as="geometry"/>
                </mxCell>
                <mxCell id="41" value="" style="shape=image;imageAspect=0;aspect=fixed;verticalLabelPosition=bottom;verticalAlign=top;image=https://external-content.duckduckgo.com/iu/?u=https%3A%2F%2Fcdn2.iconfinder.com%2Fdata%2Ficons%2Fzoldo-minimal-user-interface-2%2F32%2Fterminal_cli_command-1024.png&amp;f=1&amp;nofb=1&amp;ipt=5913fc856d7a3a04aa0c4f97e1a97c2ba325b204fc5cf96c45d9a7339cd31c70&amp;ipo=images;" vertex="1" parent="1">
                    <mxGeometry x="50" y="380" width="40" height="40" as="geometry"/>
                </mxCell>
                <mxCell id="42" value="" style="shape=image;imageAspect=0;aspect=fixed;verticalLabelPosition=bottom;verticalAlign=top;image=https://external-content.duckduckgo.com/iu/?u=https%3A%2F%2Fpngimg.com%2Fuploads%2Fgithub%2Fgithub_PNG28.png&amp;f=1&amp;nofb=1&amp;ipt=02a58eb6af539f856f6dea94f2eb7cacbad773b952f706acc7da04669a67950b&amp;ipo=images;" vertex="1" parent="1">
                    <mxGeometry x="330" y="380" width="40" height="40" as="geometry"/>
                </mxCell>
                <mxCell id="43" value="" style="shape=image;imageAspect=0;aspect=fixed;verticalLabelPosition=bottom;verticalAlign=top;image=https://external-content.duckduckgo.com/iu/?u=https%3A%2F%2Fkrify.com%2Fwp-content%2Fuploads%2F2021%2F02%2Frest-api.png&amp;f=1&amp;nofb=1&amp;ipt=0eecdf9b0dd68a3afb8506616eba8026bd257063826cdf942defd4905ca9b235&amp;ipo=images;" vertex="1" parent="1">
                    <mxGeometry x="610" y="375" width="56.35" height="45" as="geometry"/>
                </mxCell>
                <mxCell id="44" style="edgeStyle=none;html=1;exitX=1;exitY=0.75;exitDx=0;exitDy=0;entryX=0;entryY=0.75;entryDx=0;entryDy=0;" edge="1" parent="1" source="37" target="40">
                    <mxGeometry relative="1" as="geometry"/>
                </mxCell>
                <mxCell id="45" value="Update agoge&amp;nbsp;database" style="edgeLabel;html=1;align=center;verticalAlign=middle;resizable=0;points=[];" vertex="1" connectable="0" parent="44">
                    <mxGeometry x="0.25" y="-1" relative="1" as="geometry">
                        <mxPoint x="-20" as="offset"/>
                    </mxGeometry>
                </mxCell>
                <mxCell id="46" value="agoge&lt;br&gt;database" style="shape=cylinder3;whiteSpace=wrap;html=1;boundedLbl=1;backgroundOutline=1;size=15;" vertex="1" parent="1">
                    <mxGeometry x="660" y="200" width="60" height="80" as="geometry"/>
                </mxCell>
                <mxCell id="49" style="edgeStyle=none;html=1;exitX=0.25;exitY=0;exitDx=0;exitDy=0;entryX=0.25;entryY=1;entryDx=0;entryDy=0;" edge="1" parent="1" source="23" target="40">
                    <mxGeometry relative="1" as="geometry">
                        <mxPoint x="670" y="430" as="targetPoint"/>
                    </mxGeometry>
                </mxCell>
                <mxCell id="51" value="Sync lab&lt;br&gt;progression" style="edgeLabel;html=1;align=center;verticalAlign=middle;resizable=0;points=[];" vertex="1" connectable="0" parent="49">
                    <mxGeometry x="-0.1317" y="-1" relative="1" as="geometry">
                        <mxPoint x="-23" y="-2" as="offset"/>
                    </mxGeometry>
                </mxCell>
            </root>
        </mxGraphModel>
    </diagram>
</mxfile>